# xmcd
#
# Track frame offsets:
#       150
#       23595
#       37275
#       49960
#       65062
#       72942
#       92177
#       107525
#       117932
#       123245
#       131630
#       141932
#       160792
#
# Disc length: 2370 seconds
#
# Revision: 10
# Processed by: cddbd v1.5.2PL0 Copyright (c) Steve Scherf et al.
# Submitted via: WhereIsIt 3.93
#
DISCID=bd09400d
DTITLE=Queen - Sheer Heart Attack
DYEAR=1974
DGENRE=Rock
TTITLE0=Brighton Rock
TTITLE1=Killer Queen
TTITLE2=Tenement Funster
TTITLE3=Flick Of The Wrist
TTITLE4=Lily Of The Valley
TTITLE5=Now I'm Here
TTITLE6=In The Lap Of The Gods
TTITLE7=Stone Cold Crazy
TTITLE8=Dear Friends
TTITLE9=Misfire
TTITLE10=Bring Back That Leroy Brown
TTITLE11=She Makes Me (Stormtrooper In Stilettoes)
TTITLE12=In The Lap Of The Gods... Revisited
EXTD=
EXTT0=
EXTT1=
EXTT2=
EXTT3=
EXTT4=
EXTT5=
EXTT6=
EXTT7=
EXTT8=
EXTT9=
EXTT10=
EXTT11=
EXTT12=
PLAYORDER=
